<?xml version="1.0" standalone="no"?><!DOCTYPE svg PUBLIC "-//W3C//DTD SVG 1.1//EN" "http://www.w3.org/Graphics/SVG/1.1/DTD/svg11.dtd"><svg t="1765352026165" class="icon" viewBox="0 0 1024 1024" version="1.1" xmlns="http://www.w3.org/2000/svg" p-id="4783" width="32" height="32" xmlns:xlink="http://www.w3.org/1999/xlink"><path d="M434.0736 137.728h373.4016a65.28 65.28 0 0 1 65.28 65.28v224.3584H368.64V203.008A65.28 65.28 0 0 1 434.0736 137.728z" fill="#FFA89F" p-id="4784"></path><path d="M248.4224 773.2224m-120.3712 0a120.3712 120.3712 0 1 0 240.7424 0 120.3712 120.3712 0 1 0-240.7424 0Z" fill="#FFA89F" p-id="4785"></path><path d="M752.384 773.2224m-120.3712 0a120.3712 120.3712 0 1 0 240.7424 0 120.3712 120.3712 0 1 0-240.7424 0Z" fill="#FFA89F" p-id="4786"></path><path d="M807.4752 120.064H434.0736A90.9824 90.9824 0 0 0 343.04 210.944v451.3792A145.8688 145.8688 0 1 0 394.24 773.12V452.864H847.0016v209.3568a145.8688 145.8688 0 1 0 51.2 110.8992V210.944a90.9824 90.9824 0 0 0-90.7264-90.88zM248.4224 867.9936A94.7712 94.7712 0 1 1 343.04 773.12a94.8736 94.8736 0 0 1-94.6176 94.8736z m146.944-466.2272H394.24V210.944a39.7312 39.7312 0 0 1 39.68-39.68h373.4016a39.7312 39.7312 0 0 1 39.68 39.68v190.8224zM752.64 867.9936A94.7712 94.7712 0 1 1 847.1552 773.12 94.8736 94.8736 0 0 1 752.64 867.9936z" fill="#092130" p-id="4787"></path></svg>